<?xml version="1.0" standalone="no"?>
<!DOCTYPE svg PUBLIC "-//W3C//DTD SVG 20010904//EN"
 "http://www.w3.org/TR/2001/REC-SVG-20010904/DTD/svg10.dtd">
<svg version="1.0" xmlns="http://www.w3.org/2000/svg"
 width="700.000000pt" height="700.000000pt" viewBox="0 0 700.000000 700.000000"
 preserveAspectRatio="xMidYMid meet">
<metadata>
Created by potrace 1.14, written by Peter Selinger 2001-2017
</metadata>
<g transform="translate(0.000000,700.000000) scale(0.100000,-0.100000)"
fill="#000000" stroke="none">
<path d="M3372 6989 c-78 -13 -191 -64 -269 -119 -43 -30 -600 -581 -1505
-1487 -1394 -1396 -1538 -1545 -1538 -1598 0 -7 -6 -25 -14 -41 -41 -85 -56
-280 -30 -388 19 -82 52 -159 95 -227 30 -47 427 -451 1477 -1502 791 -791
1464 -1459 1497 -1484 127 -96 243 -136 395 -137 193 -2 305 35 445 145 33 26
704 693 1492 1481 1585 1587 1499 1494 1561 1693 23 74 21 282 -2 360 -25 82
-70 169 -122 235 -50 64 -2890 2902 -2949 2947 -38 29 -185 108 -185 99 0 -2
-21 3 -47 11 -59 18 -230 25 -301 12z m238 -279 c25 -7 63 -21 85 -32 58 -29
2936 -2906 2974 -2973 40 -70 54 -119 56 -195 1 -69 -15 -140 -47 -205 -13
-26 -511 -532 -1451 -1473 -788 -789 -1453 -1451 -1479 -1472 -128 -103 -325
-112 -465 -22 -26 17 -699 683 -1494 1479 -1548 1550 -1485 1482 -1507 1603
-19 102 3 220 57 300 17 25 682 696 1478 1492 1283 1282 1454 1450 1504 1472
31 14 71 28 90 31 18 3 35 8 37 9 7 7 119 -3 162 -14z"/>
<path d="M2657 4890 c-18 -9 -42 -32 -54 -50 l-23 -33 0 -1306 c0 -1277 1
-1307 20 -1338 41 -67 43 -68 357 -69 312 0 324 2 366 60 22 31 22 35 25 459
2 325 6 427 15 428 7 0 129 2 272 3 276 3 324 9 458 60 408 154 658 580 591
1008 -20 125 -56 227 -116 327 -21 34 -38 65 -38 67 0 5 -36 48 -90 107 -118
129 -291 227 -480 272 -67 16 -137 18 -673 20 -543 1 -602 0 -630 -15z m1192
-264 c197 -23 399 -163 494 -343 188 -359 11 -804 -371 -932 -91 -31 -130 -34
-474 -35 -313 -1 -328 -2 -354 -22 -15 -11 -37 -33 -48 -48 -20 -26 -21 -39
-21 -452 l0 -424 -112 0 -112 0 0 1129 -1 1130 38 3 c67 5 906 0 961 -6z"/>
<path d="M3141 4388 c-64 -41 -67 -57 -66 -419 1 -465 -35 -431 450 -427 329
3 342 4 396 27 117 48 214 151 255 271 13 38 18 83 18 145 -1 81 -4 97 -36
166 -40 87 -118 171 -192 208 -95 47 -130 50 -471 50 -310 0 -321 0 -354 -21z
m697 -271 c93 -50 112 -189 35 -259 -46 -42 -80 -47 -306 -46 l-217 1 0 161 0
162 228 -1 c194 -1 232 -4 260 -18z"/>
<path d="M1866 4390 c-113 -34 -130 -197 -25 -250 47 -24 80 -25 122 -4 39 21
51 32 69 69 49 100 -56 217 -166 185z"/>
<path d="M1565 4089 c-31 -9 -515 -484 -540 -529 -17 -33 -13 -101 8 -134 36
-55 104 -75 166 -50 44 18 516 491 535 535 21 49 5 111 -39 155 -24 24 -88 36
-130 23z"/>
<path d="M5800 3623 c-19 -7 -141 -122 -281 -263 -265 -266 -277 -284 -258
-354 12 -43 61 -92 101 -100 71 -14 89 0 360 271 278 280 284 288 258 367 -12
38 -60 85 -88 87 -9 1 -27 3 -38 4 -12 1 -36 -4 -54 -12z"/>
<path d="M5055 2872 c-109 -36 -131 -177 -38 -246 34 -25 111 -26 148 -2 132
87 39 296 -110 248z"/>
</g>
</svg>
